<svg id="Layer_3" data-name="Layer 3" xmlns="http://www.w3.org/2000/svg" viewBox="0 0 353.99 353.99"><defs><style>.cls-1{fill:#fefefe;}.cls-2{fill:#69d2e7;}.cls-3{fill:#85d9e5;}.cls-4{fill:#eaeaea;}</style></defs><title>html</title><path class="cls-1" d="M563.35,236.19h7.78c0,.33,0,.65,0,1q0,22.91,0,45.81c0,.73.18.92.92.92q18.35,0,36.7,0c.66,0,.83-.16.83-.83,0-4.68,0-9.37,0-14.06,0-.74-.2-.91-.93-.91-6.93,0-13.85,0-20.78,0-.63,0-.84-.11-.83-.81q0-15.56,0-31.13,48.08,0,96.14,0c.66,0,.81.15.81.81q0,176.17,0,352.36c0,.66-.15.81-.81.81H330.83c-.67,0-.82-.15-.82-.81q0-176.58,0-353.16h75c0,.35.07.7.07,1.05q0,22.86,0,45.71c0,.7.14.95.91.95q7.15-.06,14.32,0c.74,0,.84-.25.84-.9,0-4.68,0-9.37,0-14.06,0-.73.11-1,.93-1,4.21,0,8.43,0,12.64,0,.74,0,1,.12,1,.94,0,4.68,0,9.37,0,14,0,.72.14.94.9.94,4.69,0,9.38,0,14.06,0,.85,0,1-.26,1-1q0-23.34,0-46.68h6.9c0,.33.06.65.06,1,0,4.68,0,9.37,0,14.05,0,.76.21.92.93.91,4.07,0,8.13,0,12.2,0,.78,0,1,.18,1,1,0,10,0,20,0,30,0,.67.13.89.86.89q7-.06,14,0c.83,0,1-.24,1-1,0-10,0-20,0-30,0-.66.14-.83.81-.83,4.19,0,8.37,0,12.55,0,.46,0,.75,0,.75-.62,0-5.1,0-10.2,0-15.3h7.07c0,.15,0,.3,0,.44q0,23.26,0,46.51c0,.67.25.75.82.75,4.66,0,9.32,0,14,0,.73,0,.85-.24.85-.89q0-10.8,0-21.58v-1.18l11.12,17.12,11-16.89.16.09v.86c0,7.2,0,14.39,0,21.58,0,.67.14.89.86.89q7-.06,14.06,0c.83,0,1-.24,1-1q0-22.81,0-45.62C563.28,236.9,563.32,236.55,563.35,236.19ZM507.1,305.71H383.19c-.21,0-.42,0-.62,0-.6-.08-.81.09-.75.76.36,3.72.66,7.45,1,11.18l1.53,17.07q.65,7.35,1.3,14.7c.5,5.67,1,11.33,1.52,17q.66,7.39,1.31,14.79L390,398.28q.66,7.35,1.3,14.7l1.53,17q.65,7.39,1.3,14.79.76,8.49,1.52,17,.66,7.35,1.31,14.7l1.53,17.17c.44,4.87.86,9.74,1.3,14.61.5,5.63,1,11.27,1.52,16.9s1,11.21,1.48,16.82c.56,6.28,1.14,12.55,1.68,18.83,0,.63.23.91.84,1.08l42.19,11.66L506,589.73a3.15,3.15,0,0,0,1.8,0q28.62-7.95,57.23-15.87,21.72-6,43.46-12c.78-.22,1.19-.46,1.26-1.42.35-4.75.81-9.51,1.24-14.26q.76-8.58,1.54-17.16.65-7.31,1.3-14.62.75-8.49,1.52-17,.66-7.39,1.31-14.79c.5-5.66,1-11.32,1.52-17,.44-4.91.86-9.81,1.3-14.71L621,433.85q.66-7.35,1.3-14.71l1.53-16.9c.44-4.93.86-9.86,1.3-14.79q.76-8.62,1.54-17.25L628,355.68q.76-8.6,1.54-17.17.65-7.31,1.3-14.61c.5-5.7,1-11.39,1.52-17.08.1-1.11.07-1.11-1.06-1.11Z" transform="translate(-330.01 -236.18)"/><path class="cls-2" d="M563.35,236.19c0,.36-.07.71-.07,1.06q0,22.8,0,45.62c0,.79-.17,1-1,1q-7-.06-14.06,0c-.72,0-.86-.22-.86-.89,0-7.19,0-14.38,0-21.58v-.86l-.16-.09-11,16.89-11.12-17.12v1.18q0,10.79,0,21.58c0,.65-.12.89-.85.89-4.65,0-9.31,0-14,0-.57,0-.82-.08-.82-.75q0-23.25,0-46.51c0-.14,0-.29,0-.44H526.2L536.37,253c.21-.32.37-.56.52-.81q3.69-6.06,7.37-12.11c.78-1.28,1.52-2.57,2.28-3.86Z" transform="translate(-330.01 -236.18)"/><path class="cls-2" d="M451.55,236.19q0,23.34,0,46.68c0,.77-.13,1-1,1-4.68,0-9.37,0-14.06,0-.76,0-.9-.22-.9-.94,0-4.68,0-9.37,0-14,0-.82-.23-.94-1-.94-4.21,0-8.43,0-12.64,0-.82,0-.94.24-.93,1,0,4.69,0,9.38,0,14.06,0,.65-.1.9-.84.9q-7.17-.06-14.32,0c-.77,0-.91-.25-.91-.95q0-22.86,0-45.71c0-.35-.05-.7-.07-1.05H421c0,.33,0,.65,0,1,0,4.69,0,9.37,0,14.05,0,.56.12.75.72.75q6.63,0,13.26,0c.61,0,.71-.2.7-.74,0-5,0-10,0-15Z" transform="translate(-330.01 -236.18)"/><path class="cls-2" d="M502.5,236.19c0,5.1,0,10.2,0,15.3,0,.63-.29.62-.75.62-4.18,0-8.36,0-12.55,0-.67,0-.81.17-.81.83,0,10,0,20,0,30,0,.79-.17,1-1,1q-7-.06-14,0c-.73,0-.86-.22-.86-.89,0-10,0-20,0-30,0-.78-.18-1-1-1-4.07,0-8.13,0-12.2,0-.72,0-.94-.15-.93-.91,0-4.68,0-9.37,0-14.05,0-.32,0-.64-.06-1Z" transform="translate(-330.01 -236.18)"/><path class="cls-2" d="M587.05,236.19q0,15.57,0,31.13c0,.7.2.81.83.81,6.93,0,13.85,0,20.78,0,.73,0,.93.17.93.91,0,4.69,0,9.38,0,14.06,0,.67-.17.83-.83.83q-18.35,0-36.7,0c-.74,0-.92-.19-.92-.92q0-22.91,0-45.81c0-.33,0-.65,0-1Z" transform="translate(-330.01 -236.18)"/><path class="cls-1" d="M435.63,236.19c0,5,0,10,0,15,0,.54-.09.74-.7.74q-6.63,0-13.26,0c-.6,0-.72-.19-.72-.75,0-4.68,0-9.36,0-14.05,0-.32,0-.64,0-1Z" transform="translate(-330.01 -236.18)"/><path class="cls-1" d="M546.54,236.19c-.76,1.29-1.5,2.58-2.28,3.86q-3.68,6.06-7.37,12.11c-.15.25-.31.49-.52.81L526.2,236.19Z" transform="translate(-330.01 -236.18)"/><path class="cls-2" d="M507.1,305.71H631.27c1.13,0,1.16,0,1.06,1.11-.5,5.69-1,11.38-1.52,17.08q-.66,7.31-1.3,14.61-.76,8.58-1.54,17.17l-1.29,14.52q-.76,8.63-1.54,17.25c-.44,4.93-.86,9.86-1.3,14.79l-1.53,16.9q-.64,7.35-1.3,14.71l-1.53,17.07c-.44,4.9-.86,9.8-1.3,14.71-.5,5.66-1,11.32-1.52,17Q616,490,615.35,497.4q-.76,8.5-1.52,17-.66,7.3-1.3,14.62-.76,8.58-1.54,17.16c-.43,4.75-.89,9.51-1.24,14.26-.07,1-.48,1.2-1.26,1.42q-21.74,6-43.46,12-28.62,7.92-57.23,15.87a3.15,3.15,0,0,1-1.8,0l-58.5-16.21-42.19-11.66c-.61-.17-.79-.45-.84-1.08-.54-6.28-1.12-12.55-1.68-18.83-.5-5.61-1-11.21-1.48-16.82s-1-11.27-1.52-16.9c-.44-4.87-.86-9.74-1.3-14.61L397,476.45q-.66-7.35-1.31-14.7-.75-8.49-1.52-17-.66-7.39-1.3-14.79l-1.53-17q-.65-7.35-1.3-14.7l-1.53-17.08q-.66-7.4-1.31-14.79c-.5-5.66-1-11.32-1.52-17q-.66-7.35-1.3-14.7l-1.53-17.07c-.33-3.73-.63-7.46-1-11.18-.06-.67.15-.84.75-.76.2,0,.41,0,.62,0ZM506.93,503l-.94-.26-33.15-8.88c-.43-.12-.88-.13-.93-.82-.33-4.25-.71-8.51-1.09-12.76-.32-3.64-.66-7.27-1-10.91-.05-.65-.27-.81-.9-.81q-14.9,0-29.8,0c-.78,0-.91.22-.83.95.32,3,.57,6.09.84,9.14q.57,6.3,1.13,12.59l1.35,14.86c.33,3.67.67,7.33,1,11a.9.9,0,0,0,.8.93q17,4.73,34.08,9.5l29.56,8.24c0,.42,0,.83,0,1.24q0,15.12,0,30.25c0,.75.1.94.91.7,4.7-1.36,9.43-2.66,14.15-4l23.31-6.48,22.12-6.19,15.25-4.26c2.12-.59,4.24-1.17,6.36-1.78.36-.1.83-.11.88-.69.1-1.26.24-2.51.35-3.76.13-1.64.2-3.28.38-4.91.28-2.5.51-5,.69-7.52.1-1.46.24-2.91.37-4.37.22-2.48.46-4.95.68-7.43.14-1.49.25-3,.39-4.47.22-2.35.46-4.71.67-7.07.14-1.58.24-3.16.38-4.73.22-2.48.46-4.95.68-7.43.14-1.49.25-3,.39-4.46.22-2.39.46-4.78.67-7.17.14-1.55.25-3.09.39-4.64.22-2.48.45-4.95.68-7.43.13-1.49.25-3,.38-4.46.22-2.39.46-4.78.68-7.17.14-1.54.24-3.09.38-4.64.22-2.48.46-4.95.68-7.43.13-1.49.25-3,.39-4.46.21-2.33.46-4.66.67-7,.14-1.61.24-3.21.38-4.82.22-2.48.46-4.95.68-7.43.14-1.49.25-3,.39-4.46.22-2.33.46-4.66.67-7,.15-1.6.24-3.21.38-4.82.22-2.48.46-5,.68-7.43.14-1.49.25-3,.39-4.46.22-2.27.47-4.54.67-6.81s.35-4.62.56-6.92c.27-2.94.59-5.88.86-8.82.2-2.28.34-4.56.55-6.83.33-3.59.73-7.16,1-10.75.22-2.62.43-5.25.7-7.87.35-3.32.63-6.64.89-10,.21-2.57.4-5.14.71-7.69.14-1.14.06-1.23-1-1.23q-50.15,0-100.3,0c-.85,0-1.08.23-1.07,1.08,0,10.05,0,20.1,0,30.16l-.17.08-.88,0H429.37a2,2,0,0,1-.35,0c-.59-.09-.7.21-.64.72.1.87.16,1.76.24,2.64q.67,7.47,1.36,14.95.56,6.26,1.12,12.5c.5,5.54,1,11.08,1.52,16.63.44,4.86.86,9.74,1.3,14.6q.75,8.32,1.53,16.63c.46,5.05.94,10.09,1.34,15.14.07.87.37,1,1.16,1q23.93,0,47.84,0h21.14l.16.09v50Z" transform="translate(-330.01 -236.18)"/><path class="cls-3" d="M507.09,358c0-10.06,0-20.11,0-30.16,0-.85.22-1.08,1.07-1.08q50.16,0,100.3,0c1.11,0,1.19.09,1,1.23-.31,2.55-.5,5.12-.71,7.69-.26,3.33-.54,6.65-.89,10-.27,2.62-.48,5.25-.7,7.87-.3,3.59-.7,7.16-1,10.75-.21,2.27-.35,4.55-.55,6.83-.27,2.94-.59,5.88-.86,8.82-.21,2.3-.35,4.61-.56,6.92s-.45,4.54-.67,6.81c-.14,1.49-.25,3-.39,4.46-.22,2.48-.46,4.95-.68,7.43-.14,1.61-.23,3.22-.38,4.82-.21,2.33-.45,4.66-.67,7-.14,1.48-.25,3-.39,4.46-.22,2.48-.46,4.95-.68,7.43-.14,1.61-.24,3.21-.38,4.82-.21,2.33-.46,4.66-.67,7-.14,1.48-.26,3-.39,4.46-.22,2.48-.46,4.95-.68,7.43-.14,1.55-.24,3.1-.38,4.64-.22,2.39-.46,4.78-.68,7.17-.13,1.48-.25,3-.38,4.46-.23,2.48-.46,5-.68,7.43-.14,1.55-.25,3.09-.39,4.64-.21,2.39-.45,4.78-.67,7.17-.14,1.48-.25,3-.39,4.46-.22,2.48-.46,4.95-.68,7.43-.14,1.57-.24,3.15-.38,4.73-.21,2.36-.45,4.72-.67,7.07-.14,1.49-.25,3-.39,4.47-.22,2.48-.46,4.95-.68,7.43-.13,1.46-.27,2.91-.37,4.37-.18,2.52-.41,5-.69,7.52-.18,1.63-.25,3.27-.38,4.91-.11,1.25-.25,2.5-.35,3.76,0,.58-.52.59-.88.69-2.12.61-4.24,1.19-6.36,1.78l-15.25,4.26-22.12,6.19L522.14,564c-4.72,1.31-9.45,2.61-14.15,4-.81.24-.91,0-.91-.7q0-15.12,0-30.25c0-.41,0-.82,0-1.24v-.13l33.67-9.36,29.67-8.23c.47-.13.84-.22.89-.87.38-4.55.81-9.09,1.21-13.64q1.25-13.82,2.48-27.63,1.15-12.81,2.3-25.61,1.23-13.81,2.48-27.64c.1-1.14.1-1.14-1.06-1.14H508.23a2.92,2.92,0,0,1-1.14-.08v-32l1.06,0q36.79,0,73.58,0c.82,0,1-.26,1.08-1,.21-2.85.48-5.69.74-8.53.64-6.93,1.26-13.85,2-20.77.1-1-.23-1.05-1-1.05H508.24C507.86,358,507.48,358,507.09,358Z" transform="translate(-330.01 -236.18)"/><path class="cls-4" d="M506.93,452.82H485.79q-23.91,0-47.84,0c-.79,0-1.09-.14-1.16-1-.4-5-.88-10.09-1.34-15.14q-.76-8.31-1.53-16.63c-.44-4.86-.86-9.74-1.3-14.6-.5-5.55-1-11.09-1.52-16.63q-.57-6.25-1.12-12.5-.68-7.47-1.36-14.95c-.08-.88-.14-1.77-.24-2.64-.06-.51.05-.81.64-.72a2,2,0,0,0,.35,0H506l.88,0v31.29c-.35,0-.7,0-1.06,0H463.24c-.37,0-.51.08-.47.5.42,4.54.82,9.09,1.23,13.64.51,5.6,1,11.2,1.52,16.81.11,1.2.08,1.2,1.25,1.2h39.09l1.06,0Q506.92,437.19,506.93,452.82Z" transform="translate(-330.01 -236.18)"/><path class="cls-1" d="M506.93,452.82q0-15.63,0-31.26l.17-.11a2.92,2.92,0,0,0,1.14.08h70.48c1.16,0,1.16,0,1.06,1.14q-1.24,13.83-2.48,27.64-1.15,12.81-2.3,25.61-1.23,13.81-2.48,27.63c-.4,4.55-.83,9.09-1.21,13.64,0,.65-.42.74-.89.87l-29.67,8.23-33.67,9.36c-.23-.21-.15-.49-.15-.75q0-15.95,0-31.89l.17-.07c.22,0,.46-.06.68-.12,11-2.95,22-5.91,33-8.81a1.55,1.55,0,0,0,1.38-1.71c.19-2.94.49-5.87.75-8.8l1.53-17c.38-4.2.74-8.39,1.13-12.58.1-1.07.12-1.07-1-1.07H515.93l-8.84,0Z" transform="translate(-330.01 -236.18)"/><path class="cls-4" d="M506.93,503q0,15.94,0,31.89c0,.26-.08.54.15.75v.13l-29.56-8.24q-17-4.75-34.08-9.5a.9.9,0,0,1-.8-.93c-.31-3.67-.65-7.33-1-11l-1.35-14.86q-.57-6.3-1.13-12.59c-.27-3.05-.52-6.1-.84-9.14-.08-.73.05-.95.83-.95q14.89,0,29.8,0c.63,0,.85.16.9.81.3,3.64.64,7.27,1,10.91.38,4.25.76,8.51,1.09,12.76,0,.69.5.7.93.82L506,502.75Z" transform="translate(-330.01 -236.18)"/><path class="cls-1" d="M506.92,389.35V358.06l.17-.08c.39,0,.77,0,1.15,0h76.23c.81,0,1.14,0,1,1.05-.7,6.92-1.32,13.84-2,20.77-.26,2.84-.53,5.68-.74,8.53-.06.77-.26,1-1.08,1q-36.79,0-73.58,0l-1.06,0Z" transform="translate(-330.01 -236.18)"/><path class="cls-3" d="M507.09,452.91l8.84,0h28.64c1.1,0,1.08,0,1,1.07-.39,4.19-.75,8.38-1.13,12.58l-1.53,17c-.26,2.93-.56,5.86-.75,8.8a1.55,1.55,0,0,1-1.38,1.71c-11,2.9-22,5.86-33,8.81-.22.06-.46.08-.68.12Q507.1,477.92,507.09,452.91Z" transform="translate(-330.01 -236.18)"/><path class="cls-2" d="M506.92,389.35l.17.06v32l-.17.11-1.06,0H466.77c-1.17,0-1.14,0-1.25-1.2-.49-5.61-1-11.21-1.52-16.81-.41-4.55-.81-9.1-1.23-13.64,0-.42.1-.53.47-.5h42.62C506.22,389.38,506.57,389.36,506.92,389.35Z" transform="translate(-330.01 -236.18)"/></svg>