<svg id="php" xmlns="http://www.w3.org/2000/svg" viewBox="0 0 571.14 287.2"><defs><style>.cls-1{fill:#69d2e7;}.cls-2{fill:#fcfcfc;}</style></defs><title>php</title><path class="cls-1" d="M239,575.08c6.17-19.55,8.78-39.87,12.87-59.86,10.47-51.28,20.41-102.68,30.48-154,1.11-5.69,2.66-8.86,10-8.67,25.29.68,50.62.25,75.94.28,13.87,0,27.48,1.62,39.76,8.63,19.32,11,27.22,29,27.34,50.09.21,35-11.36,65.35-38.37,88.9-15.77,13.75-35,17.17-54.77,18.25-13.4.73-26.88.5-40.31.19-5.34-.13-7.6,1.28-8.56,6.86-2.69,15.66-6.39,31.13-9.07,46.79-.89,5.14-2.73,6.71-7.8,6.56-12.49-.36-25-.19-37.5-.23ZM341.66,388.76c-4.05,0-8.15.41-12.13-.08-7.27-.9-9.12,2.35-10.36,9.21-4.7,26-10.25,51.89-15.71,77.77-1.18,5.61-1,8.95,6.17,8.4,9.65-.74,19.45-.13,29-1.53,14-2,29.11-2.8,37.72-17a90,90,0,0,0,12.77-56.37c-.83-9-5.92-14.47-15-16.76A135,135,0,0,0,341.66,388.76Z" transform="translate(-239 -291.89)"/><path class="cls-1" d="M614.28,579c14.61-73.81,29-146.21,43.25-218.62,1-5,2.34-7.92,8.86-7.79,25.93.55,51.88.22,77.82.25,8.77,0,17.53.7,25.94,3.19,23.84,7.05,38.22,25.64,39.75,50.9,1.25,20.62-2.26,40.3-11.36,59-16.56,34-43.32,52.19-81.41,52.9q-20.62.39-41.26.14c-4.51-.06-6.41,1-7.25,6-2.72,16-6.33,31.77-9.29,47.7-.89,4.83-2.8,6.7-8,6.53C639.23,578.69,627.07,579,614.28,579Zm82-95.21c5-.3,10-.23,15-.95,16-2.3,32.91-3,41.9-19.91a94.11,94.11,0,0,0,11.12-53.21c-.76-8.73-5.35-14.75-14.65-17.11-16.25-4.13-32.69-4.18-49.24-3.78-4.28.11-4.77,2.28-5.45,5.75-4.67,23.84-9.73,47.6-14.46,71.42C676.67,484.86,676.8,484.89,696.26,483.75Z" transform="translate(-239 -291.89)"/><path class="cls-1" d="M527.75,292.07c-3.77,18.28-7.16,35.39-10.88,52.42-1.33,6.07-.54,8.55,6.73,8.49,18.71-.17,37.52-1.59,56.07,2.53,27.27,6.05,38.54,22,33.51,49.72C606.54,441.71,599,478,592.07,514.45c-.69,3.65-2,4.59-5.37,4.56-13.09-.1-26.19,0-39.65,0,6.54-32.57,12.93-64.34,19.29-96.12.43-2.14.81-4.29,1.11-6.45,2.86-20.43-2.72-26.86-23.42-27-9.7-.07-19.41.26-29.08-.31-5.62-.33-7.22,1.67-8.25,7-7.54,38.85-15.71,77.57-23.05,116.45-1.13,6-3.39,6.72-8.36,6.57-9.69-.29-19.41-.48-29.08.05-6.27.35-7.29-1.65-6.1-7.4,7.72-37.56,15.17-75.17,22.73-112.76,6.64-33,13.51-65.93,19.8-99,1.17-6.12,3.17-8.33,9.51-8C503.68,292.44,515.26,292.07,527.75,292.07Z" transform="translate(-239 -291.89)"/><path class="cls-2" d="M696.26,483.75c-19.46,1.14-19.59,1.11-15.83-17.79,4.73-23.82,9.79-47.58,14.46-71.42.68-3.47,1.17-5.64,5.45-5.75,16.55-.4,33-.35,49.24,3.78,9.3,2.36,13.89,8.38,14.65,17.11a94.11,94.11,0,0,1-11.12,53.21c-9,16.93-25.92,17.61-41.9,19.91C706.28,483.52,701.25,483.45,696.26,483.75Z" transform="translate(-239 -291.89)"/></svg>