<?xml version="1.0" encoding="utf-8"?>
<!-- Generator: Adobe Illustrator 22.0.1, SVG Export Plug-In . SVG Version: 6.00 Build 0)  -->
<svg version="1.1" id="php" xmlns="http://www.w3.org/2000/svg" xmlns:xlink="http://www.w3.org/1999/xlink" x="0px" y="0px"
	 viewBox="0 0 571.1 287.2" style="enable-background:new 0 0 571.1 287.2;" xml:space="preserve">
<style type="text/css">
	.st0{fill:#4E1160;}
	.st1{fill:#FFFFFF;}
</style>
<title>php</title>
<path class="st0" d="M197.3,188.7c2.2-7.1,3.2-14.5,4.7-21.7c3.8-18.6,7.4-37.3,11.1-55.9c0.4-2.1,1-3.2,3.6-3.1
	c9.2,0.2,18.4,0.1,27.6,0.1c5,0,10,0.6,14.4,3.1c7,4,9.9,10.5,9.9,18.2c0.1,12.7-4.1,23.7-13.9,32.3c-5.7,5-12.7,6.2-19.9,6.6
	c-4.9,0.3-9.8,0.2-14.6,0.1c-1.9,0-2.8,0.5-3.1,2.5c-1,5.7-2.3,11.3-3.3,17c-0.3,1.9-1,2.4-2.8,2.4c-4.5-0.1-9.1-0.1-13.6-0.1
	L197.3,188.7z M234.5,121.1c-1.5,0-3,0.1-4.4,0c-2.6-0.3-3.3,0.9-3.8,3.3c-1.7,9.4-3.7,18.8-5.7,28.2c-0.4,2-0.4,3.2,2.2,3
	c3.5-0.3,7.1,0,10.5-0.6c5.1-0.7,10.6-1,13.7-6.2c3.8-6.1,5.4-13.3,4.6-20.5c-0.3-3.3-2.1-5.3-5.4-6.1
	C242.4,121.5,238.5,121.1,234.5,121.1z"/>
<path class="st0" d="M333.5,190.1c5.3-26.8,10.5-53.1,15.7-79.3c0.4-1.8,0.8-2.9,3.2-2.8c9.4,0.2,18.8,0.1,28.2,0.1
	c3.2,0,6.4,0.3,9.4,1.2c8.7,2.6,13.9,9.3,14.4,18.5c0.5,7.5-0.8,14.6-4.1,21.4c-6,12.3-15.7,18.9-29.5,19.2c-5,0.1-10,0.1-15,0.1
	c-1.6,0-2.3,0.4-2.6,2.2c-1,5.8-2.3,11.5-3.4,17.3c-0.3,1.8-1,2.4-2.9,2.4C342.5,190,338.1,190.1,333.5,190.1z M363.2,155.6
	c1.8-0.1,3.6-0.1,5.4-0.3c5.8-0.8,11.9-1.1,15.2-7.2c3.2-5.9,4.6-12.6,4-19.3c-0.3-3.2-1.9-5.4-5.3-6.2c-5.9-1.5-11.9-1.5-17.9-1.4
	c-1.6,0-1.7,0.8-2,2.1c-1.7,8.7-3.5,17.3-5.2,25.9C356.1,156,356.2,156,363.2,155.6L363.2,155.6z"/>
<path class="st0" d="M302.1,86c-1.4,6.6-2.6,12.8-3.9,19c-0.5,2.2-0.2,3.1,2.4,3.1c6.8-0.1,13.6-0.6,20.3,0.9c9.9,2.2,14,8,12.2,18
	c-2.4,13.2-5.1,26.4-7.7,39.6c-0.3,1.3-0.7,1.7-1.9,1.7c-4.8,0-9.5,0-14.4,0c2.4-11.8,4.7-23.4,7-34.9c0.2-0.8,0.3-1.6,0.4-2.3
	c1-7.4-1-9.7-8.5-9.8c-3.5,0-7,0.1-10.6-0.1c-2-0.1-2.6,0.6-3,2.5c-2.7,14.1-5.7,28.2-8.4,42.3c-0.4,2.2-1.2,2.4-3,2.4
	c-3.5-0.1-7-0.2-10.6,0c-2.3,0.1-2.6-0.6-2.2-2.7c2.8-13.6,5.5-27.3,8.2-40.9c2.4-12,4.9-23.9,7.2-35.9c0.4-2.2,1.2-3,3.5-2.9
	C293.3,86.1,297.5,86,302.1,86z"/>
<path class="st1" d="M363.2,155.6c-7.1,0.4-7.1,0.4-5.7-6.5c1.7-8.6,3.6-17.3,5.2-25.9c0.2-1.3,0.4-2,2-2.1c6-0.1,12-0.1,17.9,1.4
	c3.4,0.9,5,3,5.3,6.2c0.6,6.7-0.8,13.4-4,19.3c-3.3,6.1-9.4,6.4-15.2,7.2C366.9,155.5,365,155.5,363.2,155.6z"/>
</svg>
