<svg id="Layer_1" data-name="Layer 1" xmlns="http://www.w3.org/2000/svg" viewBox="0 0 584.02 584.02"><defs><style>.cls-1{fill:#69c;}.cls-2{fill:#fefefe;}.cls-3{fill:#69d2e7;}.cls-4{fill:#fdfdfd;}</style></defs><title>wordpress</title><path class="cls-1" d="M42.67,344.66" transform="translate(-220.31 -81.98)"/><path class="cls-2" d="M512.32,666Q367.65,666,223,666c-2.19,0-2.68-.49-2.68-2.68q.09-289.34,0-578.66c0-2.19.49-2.68,2.68-2.68q289.32.09,578.66,0c2.19,0,2.68.49,2.68,2.68q-.09,289.34,0,578.66c0,2.19-.49,2.68-2.68,2.68Q657,665.91,512.32,666Zm-.18-97.29c107.59-.23,194.44-87.19,194.27-194.5-.18-107.52-87.25-194.48-194.5-194.26-107.57.23-194.55,87.31-194.26,194.5C317.93,482,404.9,568.89,512.14,568.66Z" transform="translate(-220.31 -81.98)"/><path class="cls-3" d="M512.14,568.66C404.9,568.89,317.93,482,317.65,374.4c-.29-107.19,86.69-194.27,194.26-194.5,107.25-.22,194.32,86.74,194.5,194.26C706.58,481.47,619.73,568.43,512.14,568.66Zm182.6-194.48c-.18-101.1-82-182.79-182.81-182.61-101.1.17-182.79,81.95-182.62,182.81.17,101.09,82,182.8,182.81,182.62C613.22,556.82,694.92,475,694.74,374.18Z" transform="translate(-220.31 -81.98)"/><path class="cls-4" d="M694.74,374.18C694.92,475,613.22,556.82,512.12,557c-100.85.18-182.64-81.53-182.81-182.62-.17-100.86,81.52-182.64,182.62-182.81C612.79,191.39,694.56,273.08,694.74,374.18ZM377.26,285a8.39,8.39,0,0,0,3.71.42c16,.28,31.86-.74,47.76-1.94,4.92-.37,8.06,1.64,8.57,5.76s-2.07,7-6.92,7.56c-5.78.63-11.57,1.11-17.54,1.67l58.84,175.12c.49-1.25.71-1.75.88-2.27q17-51,34.09-102.08a5.27,5.27,0,0,0-.08-3.65Q494.63,333,482.77,300.3a2.84,2.84,0,0,0-2.91-2.15c-4.85-.37-9.68-.86-14.51-1.39-4.41-.49-6.68-3-6.39-7s3.26-6.56,7.57-6.31c3.49.21,7,.57,10.46.76,13.1.73,26.2,1.69,39.33,1.2,11.66-.43,23.3-1,34.93-1.94,4.3-.36,7.22,2,7.59,5.86.39,4.13-1.94,7-6.33,7.46-4.83.52-9.67.87-14.51,1.3-3.64.32-3.64.31-2.47,3.79q18.62,55.41,37.25,110.81c6.64,19.74,13.3,39.48,20.06,59.56.39-1,.68-1.74.91-2.47,2.44-7.66,5-15.31,7.29-23,6.14-20.31,13.46-40.28,18.06-61.06,4.24-19.16,2.52-37.6-6.21-55.29-3.75-7.59-8.52-14.57-12.67-21.92-4-7-7.22-14.34-8-22.57-1.42-14.81,8.93-28.57,23.54-31,1.64-.26,3.33-.26,5.25-.4C542.64,184,426.41,207,377.26,285ZM514.91,388.56c-.42,1.09-.56,1.43-.68,1.78Q490.62,459,467,527.54c-.7,2.05,0,2.42,1.68,2.88a161.73,161.73,0,0,0,92.74-1.83c4.15-1.31,4.13-1.36,2.62-5.48q-19.61-53.83-39.22-107.66C521.6,406.74,518.39,398,514.91,388.56Zm-74,131.05c-1.8-6.53-75.76-208.46-77-210.44C328.51,387.21,362.78,482.59,440.93,519.61Zm152.74-5.72C670.75,470,695.41,370.71,654.52,297.76a4,4,0,0,0-.09.85,129.76,129.76,0,0,1-1.7,40.29c-2.3,12-6.54,23.28-10.54,34.72C628.5,412.77,615,452,601.48,491.18,598.9,498.65,596.34,506.13,593.67,513.89Z" transform="translate(-220.31 -81.98)"/><path class="cls-3" d="M377.26,285C426.41,207,542.64,184,621,254.51c-1.92.14-3.61.14-5.25.4-14.61,2.41-25,16.17-23.54,31,.79,8.23,4,15.52,8,22.57,4.15,7.35,8.92,14.33,12.67,21.92,8.73,17.69,10.45,36.13,6.21,55.29-4.6,20.78-11.92,40.75-18.06,61.06-2.33,7.7-4.85,15.35-7.29,23-.23.73-.52,1.43-.91,2.47-6.76-20.08-13.42-39.82-20.06-59.56q-18.63-55.41-37.25-110.81c-1.17-3.48-1.17-3.47,2.47-3.79,4.84-.43,9.68-.78,14.51-1.3,4.39-.48,6.72-3.33,6.33-7.46-.37-3.85-3.29-6.22-7.59-5.86-11.63,1-23.27,1.51-34.93,1.94-13.13.49-26.23-.47-39.33-1.2-3.49-.19-7-.55-10.46-.76-4.31-.25-7.28,2.27-7.57,6.31s2,6.55,6.39,7c4.83.53,9.66,1,14.51,1.39a2.84,2.84,0,0,1,2.91,2.15q11.84,32.67,23.8,65.29a5.27,5.27,0,0,1,.08,3.65q-17.07,51-34.09,102.08c-.17.52-.39,1-.88,2.27L412.84,298.47c6-.56,11.76-1,17.54-1.67,4.85-.53,7.43-3.45,6.92-7.56s-3.65-6.13-8.57-5.76c-15.9,1.2-31.8,2.22-47.76,1.94A8.39,8.39,0,0,1,377.26,285Z" transform="translate(-220.31 -81.98)"/><path class="cls-3" d="M514.91,388.56c3.48,9.47,6.69,18.18,9.87,26.89Q544.4,469.29,564,523.11c1.51,4.12,1.53,4.17-2.62,5.48a161.73,161.73,0,0,1-92.74,1.83c-1.68-.46-2.38-.83-1.68-2.88q23.71-68.58,47.27-137.2C514.35,390,514.49,389.65,514.91,388.56Z" transform="translate(-220.31 -81.98)"/><path class="cls-3" d="M440.93,519.61c-78.15-37-112.42-132.4-77-210.44C365.17,311.15,439.13,513.08,440.93,519.61Z" transform="translate(-220.31 -81.98)"/><path class="cls-3" d="M593.67,513.89c2.67-7.76,5.23-15.24,7.81-22.71,13.55-39.19,27-78.41,40.71-117.56,4-11.44,8.24-22.77,10.54-34.72a129.76,129.76,0,0,0,1.7-40.29,4,4,0,0,1,.09-.85C695.41,370.71,670.75,470,593.67,513.89Z" transform="translate(-220.31 -81.98)"/></svg>