<svg id="Layer_3" data-name="Layer 3" xmlns="http://www.w3.org/2000/svg" viewBox="0 0 129.46 129.46"><defs><style>.cls-1{fill:#f60;}</style></defs><title>dribbble-orange</title><path class="cls-1" d="M254,262a64.73,64.73,0,1,1,64.73-64.73A64.92,64.92,0,0,1,254,262Zm54.62-55.83c-2-.81-17-5.26-34.39-2.43A277.16,277.16,0,0,1,285.12,243,54.8,54.8,0,0,0,308.59,206.17ZM275.41,249.3a234.38,234.38,0,0,0-11.73-42.07h-.4c-31.16,10.92-42.48,32.36-43.29,34.39a54.85,54.85,0,0,0,34,11.73A47.29,47.29,0,0,0,275.41,249.3Zm-60.84-14.81c1.21-2,16.59-27.11,44.9-36.41.81-.41,1.62-.41,2-.81a66.63,66.63,0,0,0-4.45-9.31c-27.51,8.1-54.21,8.1-56.64,7.69v1.62C200.41,211.43,206.07,224.38,214.57,234.49Zm-14.81-48.55a210.73,210.73,0,0,0,51-6.88,355.63,355.63,0,0,0-20.63-32C215.13,154.79,203.4,169,199.76,185.94ZM241,143.46a261.2,261.2,0,0,1,20.64,32.37c19.82-7.29,27.91-18.61,29.13-19.83A55.9,55.9,0,0,0,254,142.25,67,67,0,0,0,241,143.46Zm55.83,19c-1.21,1.61-10.51,13.35-30.74,21.84,1.21,2.84,2.42,5.26,3.64,8.09.4.81.81,2,1.21,2.84,18.21-2.43,36.82,1.21,38.44,1.61A56.71,56.71,0,0,0,296.85,162.48Z" transform="translate(-189.24 -132.54)"/></svg>