<svg id="Layer_1" data-name="Layer 1" xmlns="http://www.w3.org/2000/svg" viewBox="0 0 107.85 105.21"><defs><style>.cls-1{fill:#f60;}</style></defs><title>social-media</title><path class="cls-1" d="M224.89,143.25A54,54,0,0,0,214.74,248c2.69.34,3.7-1,3.7-2.7v-9.1c-15.16,3.37-18.2-7.08-18.2-7.08-2.36-6.06-6.06-7.75-6.06-7.75-5.06-3.37.33-3.37.33-3.37,5.4.34,8.43,5.39,8.43,5.39,4.72,8.09,12.47,5.73,15.84,4.39a11.65,11.65,0,0,1,3.37-7.08c-12.13-1.35-24.6-6.07-24.6-26.63a21.33,21.33,0,0,1,5.39-14.49c-.67-1.35-2.36-6.74.67-14.15,0,0,4.39-1.35,14.83,5.39a44.82,44.82,0,0,1,13.48-1.69,59.25,59.25,0,0,1,13.49,1.69c10.44-7.08,14.83-5.73,14.83-5.73a20.08,20.08,0,0,1,.67,14.15,20.74,20.74,0,0,1,5.39,14.5c0,20.56-12.47,25.27-24.6,26.62,2,1.69,3.71,5.06,3.71,10.11v14.83c0,1.35,1,3,3.7,2.7a54,54,0,0,0-24.22-104.7Z" transform="translate(-178 -142.79)"/></svg>