<svg id="Layer_1" data-name="Layer 1" xmlns="http://www.w3.org/2000/svg" viewBox="0 0 32 31.22"><defs><style>.cls-1{fill:#4e1160;}</style></defs><title>github-purple</title><path class="cls-1" d="M16,.4a16,16,0,0,0-5.1,31.2c.8.1,1.1-.3,1.1-.8V28.1C7.5,29.1,6.6,26,6.6,26a4.11,4.11,0,0,0-1.8-2.3c-1.5-1,.1-1,.1-1a3.49,3.49,0,0,1,2.5,1.6c1.4,2.4,3.7,1.7,4.7,1.3a3.45,3.45,0,0,1,1-2.1c-3.6-.4-7.3-1.8-7.3-7.9a6.33,6.33,0,0,1,1.6-4.3,5.42,5.42,0,0,1,.2-4.2S8.9,6.7,12,8.7a13.31,13.31,0,0,1,4-.5,17.52,17.52,0,0,1,4,.5C23.1,6.6,24.4,7,24.4,7a6,6,0,0,1,.2,4.2,6.15,6.15,0,0,1,1.6,4.3c0,6.1-3.7,7.5-7.3,7.9a3.82,3.82,0,0,1,1.1,3v4.4c0,.4.3.9,1.1.8A16,16,0,0,0,16,.4Z" transform="translate(0 -0.4)"/></svg>