<svg id="Layer_2" data-name="Layer 2" xmlns="http://www.w3.org/2000/svg" viewBox="0 0 168.08 152.43"><defs><style>.cls-1{fill:#f60;}</style></defs><title>pinterest-orange</title><path class="cls-1" d="M234,120.57c-46.22,0-84,34.3-84,76.22,0,32.39,22.06,60,53.58,71-.53-6.19-1.58-15.24.52-21.91,1.58-5.72,10-38.11,10-38.11a25.83,25.83,0,0,1-2.62-11.43c0-10.48,6.82-18.58,15.23-18.58,7.35,0,10.5,4.77,10.5,11,0,6.67-4.72,16.19-6.83,25.24-2.1,7.63,4.21,13.82,12.61,13.82,14.71,0,26.26-14.29,26.26-34.77,0-18.11-14.7-31-35.19-31-24.16,0-37.82,16.2-37.82,32.87a28.15,28.15,0,0,0,6.31,17.63,4,4,0,0,1,.52,2.38c-.52,2.38-2.1,7.62-2.1,8.57-1.05,1.43-2.1,1.91-3.68.95-10.5-4.28-16.8-18.57-16.8-29.53,0-23.82,19.43-46.2,55.67-46.2,29.42,0,52,19,52,43.82,0,26.2-18.38,47.63-43.59,47.63-8.41,0-16.29-3.81-19.44-8.57,0,0-4.2,14.77-5.25,18.1-2.1,6.67-6.83,14.77-10.5,20A85.54,85.54,0,0,0,234,273c46.22,0,84-34.3,84-76.21S280.18,120.57,234,120.57Z" transform="translate(-149.92 -120.57)"/></svg>